<svg width="70" height="80" viewBox="0 0 70 80" fill="none" xmlns="http://www.w3.org/2000/svg">
<path transform="rotate(60, 3, 59)" d="M3 3V59" stroke="#8E5936" stroke-width="5" stroke-linecap="round"/>
<path transform="rotate(60, 3, 59)" d="M9 59H19" stroke="#8E5936" stroke-width="5" stroke-linecap="round"/>
<path transform="rotate(60, 3, 59)" d="M9 52H19" stroke="#8E5936" stroke-width="5" stroke-linecap="round"/>
<path transform="rotate(60, 3, 59)" d="M9 45H19" stroke="#8E5936" stroke-width="5" stroke-linecap="round"/>
<path transform="rotate(60, 3, 59)" d="M9 38H19" stroke="#8E5936" stroke-width="5" stroke-linecap="round"/>
<path transform="rotate(60, 3, 59)" d="M9 31H19" stroke="#8E5936" stroke-width="5" stroke-linecap="round"/>
<path transform="rotate(60, 3, 59)" d="M9 24H19" stroke="#8E5936" stroke-width="5" stroke-linecap="round"/>
<path transform="rotate(60, 3, 59)" d="M9 17H19" stroke="#8E5936" stroke-width="5" stroke-linecap="round"/>
<path transform="rotate(60, 3, 59)" d="M9 10H19" stroke="#8E5936" stroke-width="5" stroke-linecap="round"/>
<path transform="rotate(60, 3, 59)" d="M9 3H19" stroke="#8E5936" stroke-width="5" stroke-linecap="round"/>
</svg>
